<?xml version="1.0" encoding="utf-8"?>
<!-- Generator: Adobe Illustrator 15.0.0, SVG Export Plug-In . SVG Version: 6.00 Build 0)  -->
<!DOCTYPE svg PUBLIC "-//W3C//DTD SVG 1.1//EN" "http://www.w3.org/Graphics/SVG/1.1/DTD/svg11.dtd">
<svg version="1.1" id="Layer_1" xmlns="http://www.w3.org/2000/svg" xmlns:xlink="http://www.w3.org/1999/xlink" x="0px" y="0px"
	 width="260.81px" height="71.942px" viewBox="0 0 260.81 71.942" enable-background="new 0 0 260.81 71.942" xml:space="preserve">
<polygon fill="#FFFFFF" points="86.927,33.043 86.927,9.331 103.594,9.331 103.594,13.633 92.008,13.633 92.008,19.086 
	101.493,19.086 101.493,23.287 92.008,23.287 92.008,28.743 103.795,28.743 103.795,33.043 "/>
<path fill="#FFFFFF" d="M121.918,28.097c0,3.319-2.743,5.316-7.147,5.316c-3.455,0-7.113-1.217-9.077-2.301l1.93-3.421
	c1.83,0.914,5.014,1.998,6.944,1.998c1.49,0,2.44-0.611,2.44-1.455c0-1.425-2.913-1.898-4.846-2.407
	c-2.844-0.745-6.096-2.066-6.096-5.657c0-3.116,2.474-5.283,6.911-5.283c3.081,0,6.299,1.049,8.164,1.931l-1.898,3.184
	c-1.658-0.679-4.269-1.424-5.928-1.424c-1.491,0-2.372,0.611-2.372,1.458c0,1.388,2.508,1.727,4.641,2.269
	C118.871,23.118,121.918,24.574,121.918,28.097"/>
<path fill="#FFFFFF" d="M122.979,15.26h2.438v-4.472l4.846-0.677v5.149h4.843v3.589h-4.843v8.639c0,1.491,0.778,1.694,1.523,1.694
	c0.846,0,2.303-0.61,2.778-0.815l1.728,3.625c-1.119,0.51-3.39,1.422-5.725,1.422c-3.387,0-5.15-1.828-5.15-5.994v-8.571h-2.438
	V15.26z"/>
<path fill="#FFFFFF" d="M143.359,18.985c0.372-0.913,2.099-4.234,6.673-3.929v4.573c-5.994,0-6.673,5.691-6.673,5.691v7.723h-4.881
	V15.26h4.881V18.985z"/>
<path fill="#FFFFFF" d="M163.144,30.942c-1.354,1.254-3.453,2.471-6.231,2.471c-3.455,0-6.165-2.167-6.165-5.822
	c0-3.73,2.812-5.727,6.505-5.727c2.065,0,4.674,0.61,5.892,0.847v-1.355c0-1.964-0.745-2.778-3.149-2.778
	c-1.795,0-3.76,0.508-6.504,1.355l-1.525-3.386c3.422-1.117,6.369-1.66,8.91-1.66c4.91,0,7.147,1.828,7.147,6.672v11.484h-4.879
	V30.942z M163.144,27.724v-2.608c-0.981-0.204-2.844-0.574-4.198-0.574c-2.235,0-3.254,1.048-3.254,2.64
	c0,1.696,1.152,2.44,2.745,2.44C160.096,29.622,161.688,28.978,163.144,27.724"/>
<path fill="#FFFFFF" d="M170.441,15.26h2.439v-4.472l4.843-0.677v5.149h4.844v3.589h-4.844v8.639c0,1.491,0.779,1.694,1.522,1.694
	c0.848,0,2.306-0.61,2.778-0.815l1.729,3.625c-1.119,0.51-3.388,1.422-5.726,1.422c-3.388,0-5.147-1.828-5.147-5.994v-8.571h-2.439
	V15.26z"/>
<path fill="#FFFFFF" d="M189.283,25.219c0.27,2.946,1.592,4.572,3.931,4.572c2.031,0,4.469-1.083,6.537-2.168l1.861,3.049
	c-1.422,0.778-4.878,2.741-8.875,2.741c-4.675,0-8.467-2.912-8.467-9.212c0-5.927,3.421-9.314,8.876-9.314
	c5.588,0,8.364,3.319,8.364,7.858c0,1.423-0.27,2.474-0.27,2.474H189.283z M189.317,22.575h7.417c0.034-2.811-1.218-4.2-3.555-4.2
	C190.911,18.375,189.656,19.9,189.317,22.575"/>
<path fill="#FFFFFF" d="M221.59,15.259v17.85c0,4.982-2.607,7.183-7.691,7.183c-2.673,0-6.333-0.574-9.28-1.423l0.985-3.895
	c2.301,0.678,5.553,1.388,7.349,1.388c2.777,0,3.76-0.914,3.76-3.015v-2.235c-1.488,1.219-3.319,2.301-5.962,2.301
	c-4.064,0-6.91-3.048-6.91-9.245c0-6.265,2.846-9.281,6.91-9.281c2.643,0,4.474,1.117,5.962,2.372v-2H221.59z M216.712,27.217
	v-6.098c-1.286-1.491-2.913-2.303-4.504-2.303c-2.27,0-3.422,1.898-3.422,5.318c0,3.457,1.152,5.351,3.422,5.351
	C213.832,29.485,215.426,28.708,216.712,27.217"/>
<path fill="#FFFFFF" d="M236.529,30.942c-1.356,1.254-3.455,2.471-6.234,2.471c-3.454,0-6.164-2.167-6.164-5.822
	c0-3.73,2.812-5.727,6.502-5.727c2.068,0,4.676,0.61,5.896,0.847v-1.355c0-1.964-0.746-2.778-3.151-2.778
	c-1.795,0-3.759,0.508-6.504,1.355l-1.524-3.386c3.422-1.117,6.367-1.66,8.91-1.66c4.912,0,7.145,1.828,7.145,6.672v11.484h-4.875
	V30.942z M236.529,27.724v-2.608c-0.984-0.204-2.846-0.574-4.202-0.574c-2.235,0-3.249,1.048-3.249,2.64
	c0,1.696,1.149,2.44,2.742,2.44C233.479,29.622,235.072,28.978,236.529,27.724"/>
<path fill="#FFFFFF" d="M259.848,28.097c0,3.319-2.746,5.316-7.148,5.316c-3.455,0-7.113-1.217-9.08-2.301l1.934-3.421
	c1.828,0.914,5.012,1.998,6.943,1.998c1.492,0,2.438-0.611,2.438-1.455c0-1.425-2.912-1.898-4.843-2.407
	c-2.845-0.745-6.097-2.066-6.097-5.657c0-3.116,2.472-5.283,6.908-5.283c3.085,0,6.303,1.049,8.164,1.931l-1.897,3.184
	c-1.658-0.679-4.268-1.424-5.926-1.424c-1.493,0-2.372,0.611-2.372,1.458c0,1.388,2.506,1.727,4.64,2.269
	C256.799,23.118,259.848,24.574,259.848,28.097"/>
<path fill="#FFFFFF" d="M95.397,64.694h-8.47V40.981h8.47c7.62,0,11.923,3.389,11.923,11.856
	C107.32,61.306,103.017,64.694,95.397,64.694 M94.955,45.284h-2.947v15.108h2.947c4.743,0,7.284-1.832,7.284-7.555
	C102.239,47.114,99.698,45.284,94.955,45.284"/>
<path fill="#FFFFFF" d="M110.377,40.891h5.151v3.445h-5.151V40.891z M110.514,46.91h4.876v17.784h-4.876V46.91z"/>
<path fill="#FFFFFF" d="M135.869,46.91v17.852c0,4.979-2.605,7.181-7.689,7.181c-2.674,0-6.333-0.575-9.279-1.421l0.982-3.896
	c2.304,0.678,5.553,1.388,7.351,1.388c2.776,0,3.758-0.913,3.758-3.015v-2.235c-1.49,1.22-3.319,2.303-5.96,2.303
	c-4.066,0-6.91-3.048-6.91-9.246c0-6.267,2.844-9.282,6.91-9.282c2.641,0,4.47,1.119,5.96,2.371V46.91H135.869z M130.992,58.868
	v-6.096c-1.288-1.491-2.914-2.307-4.504-2.307c-2.27,0-3.422,1.898-3.422,5.32c0,3.455,1.152,5.35,3.422,5.35
	C128.113,61.135,129.704,60.359,130.992,58.868"/>
<path fill="#FFFFFF" d="M139.477,40.891h5.15v3.445h-5.15V40.891z M139.615,46.91h4.876v17.784h-4.876V46.91z"/>
<path fill="#FFFFFF" d="M147.002,46.911h2.438v-4.473l4.843-0.676v5.148h4.845V50.5h-4.845v8.639c0,1.491,0.781,1.694,1.525,1.694
	c0.848,0,2.304-0.611,2.776-0.814l1.729,3.625c-1.118,0.508-3.387,1.422-5.725,1.422c-3.388,0-5.149-1.827-5.149-5.993V50.5h-2.438
	V46.911z"/>
<path fill="#FFFFFF" d="M173.29,62.594c-1.355,1.253-3.455,2.471-6.232,2.471c-3.456,0-6.167-2.168-6.167-5.824
	c0-3.728,2.812-5.726,6.504-5.726c2.068,0,4.675,0.609,5.896,0.847v-1.354c0-1.965-0.744-2.778-3.149-2.778
	c-1.797,0-3.762,0.508-6.506,1.354l-1.524-3.386c3.422-1.119,6.37-1.661,8.91-1.661c4.912,0,7.147,1.829,7.147,6.673v11.484h-4.878
	V62.594z M173.29,59.375v-2.608c-0.981-0.204-2.847-0.573-4.201-0.573c-2.236,0-3.251,1.048-3.251,2.641
	c0,1.694,1.151,2.439,2.743,2.439C170.242,61.273,171.834,60.629,173.29,59.375"/>
<rect x="181.67" y="40.945" fill="#FFFFFF" width="4.879" height="23.749"/>
<path fill="#FFFFFF" d="M194.303,56.87c0.273,2.946,1.593,4.573,3.933,4.573c2.032,0,4.47-1.084,6.535-2.169l1.865,3.048
	c-1.423,0.778-4.881,2.743-8.877,2.743c-4.675,0-8.468-2.912-8.468-9.213c0-5.927,3.421-9.315,8.874-9.315
	c5.59,0,8.367,3.32,8.367,7.858c0,1.424-0.271,2.475-0.271,2.475H194.303z M194.339,54.226h7.416
	c0.036-2.812-1.217-4.201-3.556-4.201C195.931,50.025,194.677,51.55,194.339,54.226"/>
<path fill="#FFFFFF" d="M224.459,59.747c0,3.32-2.744,5.318-7.147,5.318c-3.455,0-7.113-1.218-9.079-2.303l1.931-3.421
	c1.83,0.915,5.015,1.998,6.945,1.998c1.489,0,2.439-0.61,2.439-1.455c0-1.423-2.913-1.898-4.844-2.406
	c-2.846-0.745-6.098-2.066-6.098-5.656c0-3.116,2.474-5.285,6.91-5.285c3.081,0,6.3,1.051,8.163,1.931l-1.897,3.186
	c-1.658-0.679-4.268-1.423-5.926-1.423c-1.491,0-2.373,0.608-2.373,1.456c0,1.389,2.507,1.728,4.641,2.269
	C221.409,54.769,224.459,56.226,224.459,59.747"/>
<g>
	<g>
		<defs>
			<rect id="SVGID_1_" x="22.345" y="22.325" width="49.79" height="42.448"/>
		</defs>
		<clipPath id="SVGID_2_">
			<use xlink:href="#SVGID_1_"  overflow="visible"/>
		</clipPath>
		<path clip-path="url(#SVGID_2_)" fill="#FF0064" d="M72.115,46.306c-0.589-11.064-8.111-23.055-21.938-23.981
			c0.369,1.921,0.619,3.862,0.748,5.769c0.001,0.032,0.005,0.066,0.007,0.098c0.843,12.916-6.4,19.164-19.184,20.001
			c-2.987,0.194-6.208-0.361-9.403-1.479c0.021,0.139,0.037,0.279,0.061,0.417c1.468,8.642,9.762,15.115,21.712,17.212
			C58.333,66.836,72.747,58.163,72.115,46.306"/>
	</g>
</g>
<g>
	<g>
		<defs>
			<rect id="SVGID_3_" x="1.001" y="1.542" width="49.175" height="45.172"/>
		</defs>
		<clipPath id="SVGID_4_">
			<use xlink:href="#SVGID_3_"  overflow="visible"/>
		</clipPath>
		<path clip-path="url(#SVGID_4_)" fill="#40FFF7" d="M43.839,22.699c1.1-0.212,2.195-0.35,3.273-0.403
			c1.055-0.052,2.075-0.038,3.064,0.028c-2.123-11.065-8.275-21.458-19.14-20.748C18.249,2.412,0.185,10.454,1.029,23.371
			c0.639,9.763,10.558,19.421,20.885,23.195c0.143,0.053,0.287,0.099,0.431,0.148c-0.074-0.506-0.136-1.018-0.161-1.538
			C21.658,34.407,32.964,24.801,43.839,22.699"/>
	</g>
</g>
<path fill="#FFFFFF" d="M31.748,48.193c12.784-0.838,20.027-7.084,19.185-20c-0.003-0.033-0.007-0.067-0.008-0.099
	c-0.129-1.906-0.379-3.848-0.748-5.769c-0.99-0.066-2.01-0.08-3.064-0.028c-1.079,0.053-2.174,0.19-3.274,0.403
	C32.963,24.8,21.659,34.407,22.184,45.175c0.025,0.522,0.087,1.033,0.162,1.539C25.54,47.833,28.761,48.387,31.748,48.193"/>
</svg>
